<svg width="24" height="25" viewBox="0 0 24 25" fill="none" xmlns="http://www.w3.org/2000/svg">
<path d="M21.75 7.20312V17.7031C21.75 18.2999 21.5129 18.8722 21.091 19.2941C20.669 19.7161 20.0967 19.9531 19.5 19.9531H4.5C3.90326 19.9531 3.33097 19.7161 2.90901 19.2941C2.48705 18.8722 2.25 18.2999 2.25 17.7031V7.20312M21.75 7.20312C21.75 6.60639 21.5129 6.03409 21.091 5.61213C20.669 5.19018 20.0967 4.95312 19.5 4.95312H4.5C3.90326 4.95313 3.33097 5.19018 2.90901 5.61213C2.48705 6.03409 2.25 6.60639 2.25 7.20312M21.75 7.20312V7.44613C21.75 7.83027 21.6517 8.20803 21.4644 8.54342C21.2771 8.87881 21.0071 9.16066 20.68 9.36213L13.18 13.9771C12.8252 14.1957 12.4167 14.3114 12 14.3114C11.5833 14.3114 11.1748 14.1957 10.82 13.9771L3.32 9.36312C2.99292 9.16166 2.72287 8.87981 2.53557 8.54442C2.34827 8.20903 2.24996 7.83127 2.25 7.44712V7.20312" stroke="white" stroke-width="1.5" stroke-linecap="round" stroke-linejoin="round"/>
</svg>
