<svg width="24" height="25" viewBox="0 0 24 25" fill="none" xmlns="http://www.w3.org/2000/svg">
<path d="M12 7.95312C11.11 7.95312 10.24 8.21705 9.49993 8.71151C8.75991 9.20598 8.18314 9.90878 7.84254 10.731C7.50195 11.5533 7.41283 12.4581 7.58647 13.331C7.7601 14.2039 8.18868 15.0058 8.81802 15.6351C9.44736 16.2644 10.2492 16.693 11.1221 16.8667C11.995 17.0403 12.8998 16.9512 13.7221 16.6106C14.5443 16.27 15.2471 15.6932 15.7416 14.9532C16.2361 14.2132 16.5 13.3431 16.5 12.4531C16.4988 11.26 16.0243 10.1162 15.1806 9.27252C14.337 8.42887 13.1931 7.95437 12 7.95312ZM12 15.4531C11.4067 15.4531 10.8266 15.2772 10.3333 14.9475C9.83994 14.6179 9.45542 14.1494 9.22836 13.6012C9.0013 13.053 8.94189 12.4498 9.05764 11.8679C9.1734 11.2859 9.45912 10.7514 9.87868 10.3318C10.2982 9.91225 10.8328 9.62652 11.4147 9.51077C11.9967 9.39501 12.5999 9.45442 13.1481 9.68149C13.6962 9.90855 14.1648 10.2931 14.4944 10.7864C14.8241 11.2798 15 11.8598 15 12.4531C15 13.2488 14.6839 14.0118 14.1213 14.5744C13.5587 15.1371 12.7956 15.4531 12 15.4531ZM16.5 2.70312H7.5C6.10807 2.70461 4.77358 3.25822 3.78933 4.24246C2.80509 5.2267 2.25149 6.5612 2.25 7.95312V16.9531C2.25149 18.3451 2.80509 19.6795 3.78933 20.6638C4.77358 21.648 6.10807 22.2016 7.5 22.2031H16.5C17.8919 22.2016 19.2264 21.648 20.2107 20.6638C21.1949 19.6795 21.7485 18.3451 21.75 16.9531V7.95312C21.7485 6.5612 21.1949 5.2267 20.2107 4.24246C19.2264 3.25822 17.8919 2.70461 16.5 2.70312ZM20.25 16.9531C20.25 17.9477 19.8549 18.9015 19.1516 19.6048C18.4484 20.308 17.4946 20.7031 16.5 20.7031H7.5C6.50544 20.7031 5.55161 20.308 4.84835 19.6048C4.14509 18.9015 3.75 17.9477 3.75 16.9531V7.95312C3.75 6.95856 4.14509 6.00474 4.84835 5.30147C5.55161 4.59821 6.50544 4.20312 7.5 4.20312H16.5C17.4946 4.20312 18.4484 4.59821 19.1516 5.30147C19.8549 6.00474 20.25 6.95856 20.25 7.95312V16.9531ZM18 7.57812C18 7.80063 17.934 8.01814 17.8104 8.20314C17.6868 8.38815 17.5111 8.53234 17.3055 8.61749C17.1 8.70264 16.8738 8.72492 16.6555 8.68151C16.4373 8.6381 16.2368 8.53095 16.0795 8.37362C15.9222 8.21629 15.815 8.01583 15.7716 7.7976C15.7282 7.57937 15.7505 7.35317 15.8356 7.14761C15.9208 6.94204 16.065 6.76634 16.25 6.64272C16.435 6.5191 16.6525 6.45312 16.875 6.45312C17.1734 6.45312 17.4595 6.57165 17.6705 6.78263C17.8815 6.99361 18 7.27976 18 7.57812Z" fill="white"/>
</svg>
