<svg width="24" height="25" viewBox="0 0 24 25" fill="none" xmlns="http://www.w3.org/2000/svg">
<path d="M2.25 7.20312C2.25 15.4871 8.966 22.2031 17.25 22.2031H19.5C20.0967 22.2031 20.669 21.9661 21.091 21.5441C21.5129 21.1222 21.75 20.5499 21.75 19.9531V18.5811C21.75 18.0651 21.399 17.6151 20.898 17.4901L16.475 16.3841C16.035 16.2741 15.573 16.4391 15.302 16.8011L14.332 18.0941C14.05 18.4701 13.563 18.6361 13.122 18.4741C11.4849 17.8723 9.99815 16.9217 8.76478 15.6883C7.53141 14.455 6.58087 12.9682 5.979 11.3311C5.817 10.8901 5.983 10.4031 6.359 10.1211L7.652 9.15112C8.015 8.88012 8.179 8.41713 8.069 7.97813L6.963 3.55512C6.90214 3.31182 6.76172 3.09583 6.56405 2.94146C6.36638 2.7871 6.1228 2.70321 5.872 2.70312H4.5C3.90326 2.70313 3.33097 2.94018 2.90901 3.36213C2.48705 3.78409 2.25 4.35639 2.25 4.95312V7.20312Z" stroke="white" stroke-width="1.5" stroke-linecap="round" stroke-linejoin="round"/>
</svg>
