<svg width="47" height="41" viewBox="0 0 47 41" xmlns="http://www.w3.org/2000/svg">
<path d="M44.593 7.78644C45.2118 7.78644 45.8053 8.03227 46.2429 8.46986C46.6805 8.90744 46.9263 9.50093 46.9263 10.1198C46.9263 10.7386 46.6805 11.3321 46.2429 11.7697C45.8053 12.2073 45.2118 12.4531 44.593 12.4531V35.7864C45.2118 35.7864 45.8053 36.0323 46.2429 36.4699C46.6805 36.9074 46.9263 37.5009 46.9263 38.1198C46.9263 38.7386 46.6805 39.3321 46.2429 39.7697C45.8053 40.2073 45.2118 40.4531 44.593 40.4531H2.59296C1.97412 40.4531 1.38063 40.2073 0.943046 39.7697C0.505461 39.3321 0.259628 38.7386 0.259628 38.1198C0.259628 37.5009 0.505461 36.9074 0.943046 36.4699C1.38063 36.0323 1.97412 35.7864 2.59296 35.7864V12.4531C1.97412 12.4531 1.38063 12.2073 0.943046 11.7697C0.505461 11.3321 0.259628 10.7386 0.259628 10.1198C0.259628 9.50093 0.505461 8.90744 0.943046 8.46986C1.38063 8.03227 1.97412 7.78644 2.59296 7.78644H44.593ZM11.9263 17.1198C11.3075 17.1198 10.714 17.3656 10.2764 17.8032C9.83879 18.2408 9.59296 18.8343 9.59296 19.4531V35.7864H14.2596V19.4531C14.2596 18.8343 14.0138 18.2408 13.5762 17.8032C13.1386 17.3656 12.5451 17.1198 11.9263 17.1198ZM23.593 17.1198C22.9741 17.1198 22.3806 17.3656 21.943 17.8032C21.5055 18.2408 21.2596 18.8343 21.2596 19.4531V35.7864H25.9263V19.4531C25.9263 18.8343 25.6805 18.2408 25.2429 17.8032C24.8053 17.3656 24.2118 17.1198 23.593 17.1198ZM35.2596 17.1198C34.6408 17.1198 34.0473 17.3656 33.6097 17.8032C33.1721 18.2408 32.9263 18.8343 32.9263 19.4531V35.7864H37.593V19.4531C37.593 18.8343 37.3471 18.2408 36.9095 17.8032C36.472 17.3656 35.8785 17.1198 35.2596 17.1198ZM37.593 0.786438C38.2118 0.786438 38.8053 1.03227 39.2429 1.46986C39.6805 1.90744 39.9263 2.50093 39.9263 3.11977C39.9263 3.73861 39.6805 4.3321 39.2429 4.76969C38.8053 5.20727 38.2118 5.4531 37.593 5.4531H9.59296C8.97412 5.4531 8.38063 5.20727 7.94305 4.76969C7.50546 4.3321 7.25963 3.73861 7.25963 3.11977C7.25963 2.50093 7.50546 1.90744 7.94305 1.46986C8.38063 1.03227 8.97412 0.786438 9.59296 0.786438H37.593Z" fill="currentColor"/>
</svg>
