<svg width="24" height="25" viewBox="0 0 24 25" fill="none" xmlns="http://www.w3.org/2000/svg">
<path d="M15.4163 11.8288L10.9163 8.82875C10.8033 8.75338 10.6719 8.71009 10.5363 8.70352C10.4006 8.69695 10.2657 8.72733 10.146 8.79144C10.0263 8.85554 9.9262 8.95095 9.85645 9.06749C9.7867 9.18403 9.74991 9.31732 9.75 9.45313V15.4531C9.74991 15.5889 9.7867 15.7222 9.85645 15.8388C9.9262 15.9553 10.0263 16.0507 10.146 16.1148C10.2657 16.1789 10.4006 16.2093 10.5363 16.2027C10.6719 16.1962 10.8033 16.1529 10.9163 16.0775L15.4163 13.0775C15.5191 13.009 15.6035 12.9162 15.6618 12.8073C15.7202 12.6984 15.7507 12.5767 15.7507 12.4531C15.7507 12.3296 15.7202 12.2079 15.6618 12.099C15.6035 11.99 15.5191 11.8972 15.4163 11.8288ZM11.25 14.0516V10.8594L13.6481 12.4531L11.25 14.0516ZM21.9684 6.97063C21.8801 6.62502 21.7109 6.30536 21.4747 6.03803C21.2385 5.77071 20.9421 5.56337 20.61 5.43313C17.3962 4.19188 12.2812 4.20313 12 4.20313C11.7188 4.20313 6.60375 4.19188 3.39 5.43313C3.0579 5.56337 2.76153 5.77071 2.52534 6.03803C2.28915 6.30536 2.1199 6.62502 2.03156 6.97063C1.78875 7.90625 1.5 9.61625 1.5 12.4531C1.5 15.29 1.78875 17 2.03156 17.9356C2.11977 18.2814 2.28895 18.6013 2.52515 18.8688C2.76136 19.1363 3.0578 19.3437 3.39 19.4741C6.46875 20.6619 11.2875 20.7031 11.9381 20.7031H12.0619C12.7125 20.7031 17.5341 20.6619 20.61 19.4741C20.9422 19.3437 21.2386 19.1363 21.4748 18.8688C21.711 18.6013 21.8802 18.2814 21.9684 17.9356C22.2113 16.9981 22.5 15.29 22.5 12.4531C22.5 9.61625 22.2113 7.90625 21.9684 6.97063ZM20.5163 17.5644C20.4877 17.6794 20.4323 17.786 20.3545 17.8755C20.2768 17.9649 20.179 18.0347 20.0691 18.0791C17.1019 19.2247 12.0553 19.2041 12.0066 19.2041H12C11.9494 19.2041 6.90656 19.2228 3.9375 18.0791C3.8276 18.0347 3.72977 17.9649 3.65204 17.8755C3.57431 17.786 3.51888 17.6794 3.49031 17.5644C3.2625 16.7084 3 15.1316 3 12.4531C3 9.77469 3.2625 8.19782 3.48375 7.34657C3.51179 7.23086 3.56697 7.12349 3.64473 7.03334C3.7225 6.94319 3.8206 6.87285 3.93094 6.82813C6.79219 5.72282 11.5866 5.70313 11.9794 5.70313H12.0047C12.0553 5.70313 17.1028 5.68625 20.0672 6.82813C20.1771 6.87248 20.2749 6.94225 20.3526 7.03172C20.4304 7.12118 20.4858 7.2278 20.5144 7.34282C20.7375 8.19782 21 9.77469 21 12.4531C21 15.1316 20.7375 16.7084 20.5163 17.5597V17.5644Z" fill="white"/>
</svg>
